#!OML:ASF E:/inclinewalkrobotboard/Project1/Captureday1/Session1/subject1.ASF
:FULLY-SPECIFIED
:DEGREES
213
root 0 0 0 1.4666061391439804 -8.761970348499956 1.0175984245694965
lowerback 1.3738926211362494 -1.3082626201605774 -3.008826659686887
upperback -1.0231397860831901 -1.6232124812534887 2.258694043629697
thorax -1.5927757697255276 -0.787518223305642 4.000038914416218
lowerneck -27.16168094507229 -1.9843481190102692 -7.251942489454977
upperneck 10.751592601012575 -0.84425565204145 4.816263150795927
head 7.669840391921164 -0.17520881671227095 2.678284092577369
rclavicle -3.975512841567269E-15 -8.062178777636575E-16
rhumerus -32.43773647814388 -5.274341298553081 -80.29028664731578
rradius 30.030175827067602
rwrist 18.447267087616087
rhand -17.601288906086054 9.948377490143459
rfingers 7.125019999999942
rthumb 8.652589957267727 -19.869547274392012
lclavicle -2.4085020103093037E-15 -7.187667900297004E-16
lhumerus -10.359618698235947 9.015505106205094 89.42998476275072
lradius 60.074796640162056
lwrist -5.092764090745211
lhand -33.55915059994306 17.362400319063237
lfingers 7.125020000000008
lthumb -6.75301859224821 46.99672314998296
rfemur -22.26757637023932 -0.4780746865502934 20.39436442198927
rtibia 70.97648659943692
rfoot 0.18972151420358685 -5.602571405237495
rtoes 7.65907846860622
lfemur -6.653969405887683 -2.4312049813683387 -26.260461948538758
ltibia 28.22942140812667
lfoot -9.964302248742028 -2.095031880999661
ltoes 8.77193386903652
214
root 0 0 0 1.533887948114483 -8.805099319520457 1.0786786915399824
lowerback 1.287113362707693 -1.3367962009330872 -3.0651529559137423
upperback -1.0062886351423956 -1.6667085804730597 2.2760110877397204
thorax -1.522359240041124 -0.8068331139683482 4.050747599256601
lowerneck -27.55498838231184 -2.0336851716256965 -7.31587025607984
upperneck 10.140585206963745 -0.9019997917326111 4.9752709171505245
head 7.508227730413385 -0.16622476518404958 2.726985879382106
rclavicle -3.785081030811087E-15 -7.632227848380775E-16
rhumerus -32.57791621307435 -5.51347174794533 -80.24378844649826
rradius 29.98149262941173
rwrist 18.652138621278723
rhand -17.51793926939789 9.822820669788538
rfingers 7.125019999999945
rthumb 8.7323767804871 -19.9967256523965
lclavicle -2.4215118729762963E-15 -5.846069789201696E-16
lhumerus -9.863920046136318 8.817770551961019 89.10754108943152
lradius 60.53430761054862
lwrist -5.157562585029526
lhand -33.66334022342952 17.433687878894247
lfingers 7.125020000000008
lthumb -6.854821545282098 47.06477349764865
rfemur -26.131984074320837 -0.8289487982182031 18.92822496816679
rtibia 68.49694204035481
rfoot -2.2171518212778363 -6.349582386205936
rtoes 4.550395548168051
lfemur -1.428946941890548 -2.3157575154232632 -28.80242773744644
ltibia 25.656230882811784
lfoot -14.588697238887562 -1.0844409291212709
ltoes 7.358283660628285
215
root 0 0 0 1.62892255587674 -8.878323345327013 1.1636868938483302
lowerback 1.1753432960579782 -1.3831898417397135 -3.1352765692456894
upperback -0.9686303322838656 -1.7368332552661367 2.3009633145538237
thorax -1.4154071439397644 -0.8394610197170015 4.116155568663463
lowerneck -28.15175321262892 -2.098999321044854 -7.3922859621619175
upperneck 9.2983891889767 -0.9696382690794266 5.1667974464318736
head 7.293923575208395 -0.15055136985872458 2.7836727711194507
rclavicle -3.4143173782813394E-15 -7.137975631091707E-16
rhumerus -32.626503756729946 -5.497613987248643 -80.2218386575902
rradius 29.972472392260357
rwrist 18.74876367087852
rhand -17.502526482283738 9.754414519774691
rfingers 7.125019999999948
rthumb 8.746805093847568 -20.067896636400615
lclavicle -2.3048873572050086E-15 -5.684909420897826E-16
lhumerus -9.346263014812784 8.548889162870967 88.75030840808824
lradius 61.03897613006014
lwrist -5.204134076514878
lhand -33.76279656532792 17.519501029883788
lfingers 7.125020000000008
lthumb -6.950377002696103 47.14809180343774
rfemur -28.064992149089356 -0.6076362512133304 18.714926006596592
rtibia 63.52358398717078
rfoot -3.8889605456250624 -7.472490490544557
rtoes 1.9342702528084312
lfemur 1.946164926030446 -2.164663933838211 -30.000970871657383
ltibia 24.54048220177782
lfoot -17.283891940392987 -0.8560753826673877
ltoes 5.448701339511146
216
root 0 0 0 1.7238195524538662 -8.956507723612795 1.2488521911337709
lowerback 1.0872876959439648 -1.4368718642388338 -3.1921917962818798
upperback -0.9082813207077497 -1.8167940434339376 2.327575237488937
thorax -1.2992836333416904 -0.8783521870848133 4.174316587765102
lowerneck -28.834065733517182 -2.1695523213497445 -7.446531099605203
upperneck 8.388801968958397 -1.0372601848127143 5.333188445379971
head 7.066776299503129 -0.13331726110115516 2.8263118441892745
rclavicle -2.7815328539461437E-15 -8.79613794302845E-16
rhumerus -32.62094175826195 -5.420097210637542 -80.19562863488719
rradius 29.9605913853113
rwrist 18.735100929434346
rhand -17.518906296509538 9.768939065901499
rfingers 7.125019999999948
rthumb 8.730660700048974 -20.057082659162802
lclavicle -1.973916962475287E-15 -6.810203254353675E-16
lhumerus -9.095187110042321 8.236590962600886 88.52737575329903
lradius 61.38566631959796
lwrist -5.164694030096827
lhand -33.78595694193226 17.619662966832095
lfingers 7.125020000000008
lthumb -6.9714818449788805 47.24943975308089
rfemur -29.46413360256306 0.21251766495743585 19.104601840185765
rtibia 54.96066626524545
rfoot -5.385668317639437 -9.184011600500472
rtoes -0.7135040015746359
lfemur 3.5789267535806277 -2.1298823897683374 -30.324083394218743
ltibia 24.121090641274776
lfoot -18.122242594512578 -1.0038765505558982
ltoes 4.066059727167586
217
root 0 0 0 1.8401034187914802 -9.061828176164628 1.3546984823961767
lowerback 1.017047056071221 -1.5155456978680422 -3.239331846247337
upperback -0.7964438644079659 -1.932112397080377 2.3629566796966364
thorax -1.1400606325646914 -0.9366696154510402 4.233518934052393
lowerneck -29.821416189768854 -2.2664045102020625 -7.474492861300854
upperneck 7.1602357679902315 -1.1202406280563237 5.493723013648351
head 6.767577321188497 -0.1101893884605907 2.8546509839669074
rclavicle -1.4606553466739526E-15 -1.6535676005174373E-15
rhumerus -32.553015064489884 -5.2276478364458505 -80.12852328450612
rradius 29.921872797108392
rwrist 18.570020972121732
rhand -17.582222783478958 9.904749988106714
rfingers 7.125019999999944
rthumb 8.66869915597029 -19.92984255320457
lclavicle -1.2022241286112852E-15 -1.059420341823365E-15
lhumerus -9.643519988102042 7.595993182472008 88.69071341905536
lradius 61.439910788980406
lwrist -4.843978715610561
lhand -33.58932159759693 17.81014515737131
lfingers 7.125020000000006
lthumb -6.780150543109716 47.45366991961808
rfemur -31.87415570717318 2.364148077750891 18.65407446835576
rtibia 37.584743279547574
rfoot -6.599613236876172 -11.80808821028823
rtoes -5.157556526435659
lfemur 7.461399133301271 -2.5541403677548837 -30.347033055380052
ltibia 22.247995339258786
lfoot -17.742008364049656 -2.011068988345268
ltoes 0.2627905199423104
